<svg width="19" height="19" viewBox="0 0 19 19" fill="none" xmlns="http://www.w3.org/2000/svg">
<path opacity="0.6" fill-rule="evenodd" clip-rule="evenodd" d="M6.72378 12.5244C8.12778 13.6462 9.90803 14.1878 11.6989 14.038C13.4898 13.8882 15.1553 13.0584 16.3534 11.7189C17.5515 10.3795 18.1913 8.63211 18.1413 6.83568C18.0913 5.03926 17.3554 3.33016 16.0846 2.05941C14.8139 0.788654 13.1048 0.0527086 11.3084 0.00272307C9.51194 -0.0472625 7.76456 0.592506 6.42511 1.79063C5.08566 2.98876 4.25581 4.65429 4.10601 6.44515C3.95621 8.23602 4.49782 10.0163 5.61961 11.4203L0.248776 16.7901C0.172019 16.8616 0.110455 16.9478 0.067755 17.0437C0.025055 17.1395 0.00209331 17.2429 0.000242489 17.3478C-0.00160833 17.4527 0.0176896 17.5569 0.0569823 17.6542C0.096275 17.7515 0.154757 17.8399 0.228943 17.9141C0.303129 17.9882 0.3915 18.0467 0.488779 18.086C0.586059 18.1253 0.690256 18.1446 0.795155 18.1428C0.900054 18.1409 1.0035 18.1179 1.09934 18.0752C1.19517 18.0325 1.28142 17.971 1.35294 17.8942L6.72378 12.5244ZM14.98 10.8974C15.7446 10.1327 16.2653 9.15863 16.4764 8.09815C16.6875 7.03768 16.5794 5.93843 16.166 4.93933C15.7525 3.94023 15.0521 3.08612 14.1533 2.48496C13.2546 1.88379 12.1978 1.56254 11.1165 1.56181C10.0352 1.56108 8.97801 1.88091 8.07845 2.48087C7.17888 3.08083 6.47736 3.93399 6.06254 4.93253C5.64772 5.93107 5.53822 7.03018 5.74787 8.09094C5.95753 9.15169 6.47693 10.1265 7.24044 10.8921L7.24565 10.8974L7.25086 10.9015C8.27681 11.9251 9.66708 12.4996 11.1163 12.4988C12.5655 12.498 13.9552 11.922 14.98 10.8974Z" fill="white"/>
</svg>
